<?xml version="1.0" encoding="UTF-8" standalone="no"?>
<!-- Created with Inkscape (http://www.inkscape.org/) -->

<svg
   width="348"
   height="78"
   viewBox="0 0 92.074992 20.637496"
   version="1.1"
   id="svg5"
   xmlns="http://www.w3.org/2000/svg"
   xmlns:svg="http://www.w3.org/2000/svg">
  <defs
     id="defs2" />
  <g
     id="layer1"
     transform="translate(-29.354481,-6.8006856)">
    <g
       aria-label="MegaTrivia"
       id="text186"
       style="font-size:19.05px;line-height:17.8594px;font-family:Bahamas;-inkscape-font-specification:Bahamas;letter-spacing:0px;word-spacing:0px;overflow:visible;fill-rule:evenodd;stroke:#000000;stroke-width:0.00293981">
      <path
         d="m 30.786394,21.767633 1.4859,-11.8681491 q 0.0762,-0.78105 0.5334,-1.2572999 0.47625,-0.4953 1.0668,-0.4953 0.51435,0 0.93345,0.36195 0.4191,0.36195 0.62865,1.0858499 l 2.80035,9.2011501 2.667,-9.0106501 q 0.24765,-0.8000999 0.6858,-1.2001499 0.43815,-0.40005 0.9525,-0.40005 0.59055,0 1.0287,0.40005 0.43815,0.40005 0.4953,1.0477499 l 1.6002,12.1348491 h -1.88595 l -1.31445,-10.934699 -3.048,9.963149 q -0.13335,0.4953 -0.4953,0.8001 -0.3429,0.28575 -0.762,0.28575 -0.81915,0 -1.16205,-1.04775 l -3.048,-10.039349 -1.2573,10.972799 z"
         id="path400"
         style="fill:#47c747;fill-opacity:1" />
      <path
         d="m 48.445752,17.405184 4.55295,-2.5146 q -0.40005,-0.40005 -0.6477,-0.5334 -0.59055,-0.32385 -1.4859,-0.32385 -1.3335,0 -2.1336,0.9525 -0.8001,0.9525 -0.8001,2.3622 0,1.1811 0.78105,2.0574 0.85725,0.952499 2.22885,0.952499 1.39065,0 2.11455,-0.761999 0.6477,-0.66675 0.93345,-2.11455 l 1.6764,0.2286 q 0,1.4859 -1.20015,2.762249 -1.42875,1.524 -3.63855,1.524 -1.8669,0 -3.25755,-1.35255 -1.39065,-1.352549 -1.39065,-3.238499 0,-2.4003 1.58115,-3.79095 1.35255,-1.1811 3.10515,-1.1811 1.5621,0 2.6289,0.7239 1.08585,0.70485 1.84785,2.1717 l -6.1722,3.429 z"
         id="path402"
         style="fill:#47c747;fill-opacity:1" />
      <path
         d="m 58.656537,24.034583 q 0.85725,0.24765 1.42875,0.3429 0.5715,0.1143 1.2192,0.1143 1.35255,0 2.2098,-0.762 0.8763,-0.74295 0.8763,-1.96215 v -4.457699 q 0,-1.46685 -0.8382,-2.3622 -0.81915,-0.9144 -1.96215,-0.9144 -1.31445,0 -2.15265,0.7239 -0.97155,0.8382 -0.97155,2.5146 l 0.0381,0.28575 q 0,1.0668 0.78105,1.88595 0.8763,0.914399 2.22885,0.914399 0.55245,0 1.04775,-0.171449 0.4953,-0.1905 1.16205,-0.5715 v 1.752599 q -0.6096,0.28575 -1.20015,0.43815 -0.5715,0.1524 -1.16205,0.1524 -1.9431,0 -3.2385,-1.3716 -1.2954,-1.371599 -1.2954,-3.314699 0,-2.4384 1.65735,-3.7719 1.3335,-1.0668 3.06705,-1.0668 1.88595,0 3.2004,1.2192 1.31445,1.2192 1.31445,3.048 v 4.686299 q 0,2.0574 -1.27635,3.37185 -1.2573,1.3335 -3.429,1.3335 -1.0287,0 -1.73355,-0.1524 -0.6858,-0.13335 -1.39065,-0.381 z"
         id="path404"
         style="fill:#47c747;fill-opacity:1" />
      <path
         d="m 74.963319,21.767633 v -5.276849 q 0,-1.0668 -0.81915,-1.7526 -0.81915,-0.70485 -2.19075,-0.70485 -1.08585,0 -1.905,0.62865 -1.08585,0.81915 -1.08585,2.45745 0,1.4859 0.93345,2.4003 0.85725,0.838199 2.0574,0.838199 1.31445,0 2.34315,-1.276349 v 2.019299 q -0.74295,0.47625 -1.00965,0.59055 -0.6096,0.2667 -1.4859,0.2667 -1.77165,0 -3.0861,-1.27635 -1.42875,-1.390649 -1.42875,-3.562349 0,-2.0193 1.20015,-3.29565 1.2954,-1.39065 3.60045,-1.39065 2.15265,0 3.429,1.27635 1.16205,1.16205 1.16205,2.91465 v 5.143499 z"
         id="path406"
         style="fill:#47c747;fill-opacity:1" />
      <path
         d="m 77.458855,10.089984 v -1.6764 h 8.40105 v 1.6764 h -3.29565 v 11.677649 h -1.7907 V 10.089984 Z"
         id="path408"
         style="fill:#359595;fill-opacity:1" />
      <path
         d="m 86.717169,12.623634 h 1.600199 v 1.0668 q 0.3429,-0.55245 0.8763,-0.8763 0.6477,-0.381 1.50495,-0.381 h 0.51435 v 1.6002 h -0.40005 q -1.2954,0 -1.9431,1.08585 -0.47625,0.8001 -0.47625,1.84785 v 4.800599 h -1.676399 z"
         id="path410"
         style="fill:#359595;fill-opacity:1" />
      <path
         d="m 92.775078,10.528134 q 0,-0.40005 0.3048,-0.6858001 0.3048,-0.28575 0.70485,-0.28575 0.381,0 0.6858,0.28575 0.3048,0.2857501 0.3048,0.7239001 0,0.4572 -0.28575,0.74295 -0.2667,0.2667 -0.66675,0.2667 -0.4191,0 -0.74295,-0.2667 -0.3048,-0.28575 -0.3048,-0.78105 z m 0.1524,11.239499 v -9.143999 h 1.6764 v 9.143999 z"
         id="path412"
         style="fill:#359595;fill-opacity:1" />
      <path
         d="m 96.146937,12.623634 h 1.8288 l 2.686053,7.10565 2.667,-7.10565 h 1.7907 l -3.2004,8.477249 q -0.36195,0.85725 -1.2954,0.85725 -0.43815,0 -0.819153,-0.24765 -0.36195,-0.2667 -0.4953,-0.7239 z"
         id="path414"
         style="fill:#359595;fill-opacity:1" />
      <path
         d="m 106.4911,10.528134 q 0,-0.40005 0.3048,-0.6858001 0.3048,-0.28575 0.70485,-0.28575 0.381,0 0.6858,0.28575 0.3048,0.2857501 0.3048,0.7239001 0,0.4572 -0.28575,0.74295 -0.2667,0.2667 -0.66675,0.2667 -0.4191,0 -0.74295,-0.2667 -0.3048,-0.28575 -0.3048,-0.78105 z m 0.1524,11.239499 v -9.143999 h 1.6764 v 9.143999 z"
         id="path416"
         style="fill:#359595;fill-opacity:1" />
      <path
         d="m 118.28306,21.767633 v -5.276849 q 0,-1.0668 -0.81915,-1.7526 -0.81915,-0.70485 -2.19075,-0.70485 -1.08585,0 -1.905,0.62865 -1.08585,0.81915 -1.08585,2.45745 0,1.4859 0.93345,2.4003 0.85725,0.838199 2.0574,0.838199 1.31445,0 2.34315,-1.276349 v 2.019299 q -0.74295,0.47625 -1.00965,0.59055 -0.6096,0.2667 -1.4859,0.2667 -1.77165,0 -3.0861,-1.27635 -1.42875,-1.390649 -1.42875,-3.562349 0,-2.0193 1.20015,-3.29565 1.2954,-1.39065 3.60045,-1.39065 2.15265,0 3.429,1.27635 1.16205,1.16205 1.16205,2.91465 v 5.143499 z"
         id="path418"
         style="fill:#359595;fill-opacity:1" />
    </g>
  </g>
</svg>
